      <svg xmlns="http://www.w3.org/2000/svg" width="646" height="1284">
         <defs>
            <style type="text/css">
               @namespace "http://www.w3.org/2000/svg";
               .line                 {fill: none; stroke: #332900;}
               .bold-line            {stroke: #141000; shape-rendering: crispEdges; stroke-width:
               2; }
               .thin-line            {stroke: #1F1800; shape-rendering: crispEdges}
               .filled               {fill: #332900; stroke: none;}
               text.terminal         {font-family: Verdana, Sans-serif;
               font-size: 12px;
               fill: #141000;
               font-weight: bold;
               }
               text.nonterminal      {font-family: Verdana, Sans-serif;
               font-size: 12px;
               fill: #1A1400;
               }
               text.regexp           {font-family: Verdana, Sans-serif;
               font-size: 12px;
               fill: #1F1800;
               }
               rect, circle, polygon {fill: #332900; stroke: #332900;}
               rect.terminal         {fill: #FFDB4D; stroke: #332900;}
               rect.nonterminal      {fill: #FFEC9E; stroke: #332900;}
               rect.text             {fill: none; stroke: none;}    
               polygon.regexp        {fill: #FFF4C7; stroke: #332900;}
               
            </style>
         </defs>
         <polygon points="9 1233 1 1229 1 1237" />
         <polygon points="17 1233 9 1229 9 1237" />
         <rect x="51" y="1185" width="30" height="32" rx="10" />
         <rect x="49" y="1183" width="30" height="32" class="terminal" rx="10" />
         <text class="terminal" x="59" y="1203">+</text>
         <rect x="51" y="1141" width="26" height="32" rx="10" />
         <rect x="49" y="1139" width="26" height="32" class="terminal" rx="10" />
         <text class="terminal" x="59" y="1159">-</text>
         <rect x="51" y="1097" width="30" height="32" rx="10" />
         <rect x="49" y="1095" width="30" height="32" class="terminal" rx="10" />
         <text class="terminal" x="59" y="1115">~</text>
         <a xmlns:xlink="http://www.w3.org/1999/xlink" xlink:href="#atom_expr" xlink:title="atom_expr">
            <rect x="241" y="1219" width="86" height="32" />
            <rect x="239" y="1217" width="86" height="32" class="nonterminal" />
            <text class="nonterminal" x="249" y="1237">atom_expr</text>
         </a>
         <rect x="367" y="1251" width="38" height="32" rx="10" />
         <rect x="365" y="1249" width="38" height="32" class="terminal" rx="10" />
         <text class="terminal" x="375" y="1269">**</text>
         <a xmlns:xlink="http://www.w3.org/1999/xlink" xlink:href="#factor" xlink:title="factor">
            <rect x="425" y="1251" width="54" height="32" />
            <rect x="423" y="1249" width="54" height="32" class="nonterminal" />
            <text class="nonterminal" x="433" y="1269">factor</text>
         </a>
         <rect x="261" y="965" width="30" height="32" rx="10" />
         <rect x="259" y="963" width="30" height="32" class="terminal" rx="10" />
         <text class="terminal" x="269" y="983">+</text>
         <rect x="261" y="921" width="26" height="32" rx="10" />
         <rect x="259" y="919" width="26" height="32" class="terminal" rx="10" />
         <text class="terminal" x="269" y="939">-</text>
         <rect x="261" y="877" width="30" height="32" rx="10" />
         <rect x="259" y="875" width="30" height="32" class="terminal" rx="10" />
         <text class="terminal" x="269" y="895">~</text>
         <rect x="351" y="999" width="28" height="32" rx="10" />
         <rect x="349" y="997" width="28" height="32" class="terminal" rx="10" />
         <text class="terminal" x="359" y="1017">*</text>
         <rect x="351" y="1043" width="30" height="32" rx="10" />
         <rect x="349" y="1041" width="30" height="32" class="terminal" rx="10" />
         <text class="terminal" x="359" y="1061">@</text>
         <rect x="351" y="1087" width="28" height="32" rx="10" />
         <rect x="349" y="1085" width="28" height="32" class="terminal" rx="10" />
         <text class="terminal" x="359" y="1105">/</text>
         <rect x="351" y="1131" width="34" height="32" rx="10" />
         <rect x="349" y="1129" width="34" height="32" class="terminal" rx="10" />
         <text class="terminal" x="359" y="1149">%</text>
         <rect x="351" y="1175" width="36" height="32" rx="10" />
         <rect x="349" y="1173" width="36" height="32" class="terminal" rx="10" />
         <text class="terminal" x="359" y="1193">//</text>
         <rect x="241" y="755" width="30" height="32" rx="10" />
         <rect x="239" y="753" width="30" height="32" class="terminal" rx="10" />
         <text class="terminal" x="249" y="773">+</text>
         <rect x="241" y="711" width="26" height="32" rx="10" />
         <rect x="239" y="709" width="26" height="32" class="terminal" rx="10" />
         <text class="terminal" x="249" y="729">-</text>
         <rect x="241" y="667" width="30" height="32" rx="10" />
         <rect x="239" y="665" width="30" height="32" class="terminal" rx="10" />
         <text class="terminal" x="249" y="685">~</text>
         <rect x="331" y="789" width="30" height="32" rx="10" />
         <rect x="329" y="787" width="30" height="32" class="terminal" rx="10" />
         <text class="terminal" x="339" y="807">+</text>
         <rect x="331" y="833" width="26" height="32" rx="10" />
         <rect x="329" y="831" width="26" height="32" class="terminal" rx="10" />
         <text class="terminal" x="339" y="851">-</text>
         <rect x="221" y="589" width="30" height="32" rx="10" />
         <rect x="219" y="587" width="30" height="32" class="terminal" rx="10" />
         <text class="terminal" x="229" y="607">+</text>
         <rect x="221" y="545" width="26" height="32" rx="10" />
         <rect x="219" y="543" width="26" height="32" class="terminal" rx="10" />
         <text class="terminal" x="229" y="563">-</text>
         <rect x="221" y="501" width="30" height="32" rx="10" />
         <rect x="219" y="499" width="30" height="32" class="terminal" rx="10" />
         <text class="terminal" x="229" y="519">~</text>
         <rect x="291" y="623" width="20" height="32" rx="10" />
         <rect x="289" y="621" width="20" height="32" class="terminal" rx="10" />
         <text class="terminal" x="299" y="641" />
         <rect x="201" y="423" width="30" height="32" rx="10" />
         <rect x="199" y="421" width="30" height="32" class="terminal" rx="10" />
         <text class="terminal" x="209" y="441">+</text>
         <rect x="201" y="379" width="26" height="32" rx="10" />
         <rect x="199" y="377" width="26" height="32" class="terminal" rx="10" />
         <text class="terminal" x="209" y="397">-</text>
         <rect x="201" y="335" width="30" height="32" rx="10" />
         <rect x="199" y="333" width="30" height="32" class="terminal" rx="10" />
         <text class="terminal" x="209" y="353">~</text>
         <rect x="271" y="457" width="30" height="32" rx="10" />
         <rect x="269" y="455" width="30" height="32" class="terminal" rx="10" />
         <text class="terminal" x="279" y="475">&amp;</text>
         <rect x="181" y="257" width="30" height="32" rx="10" />
         <rect x="179" y="255" width="30" height="32" class="terminal" rx="10" />
         <text class="terminal" x="189" y="275">+</text>
         <rect x="181" y="213" width="26" height="32" rx="10" />
         <rect x="179" y="211" width="26" height="32" class="terminal" rx="10" />
         <text class="terminal" x="189" y="231">-</text>
         <rect x="181" y="169" width="30" height="32" rx="10" />
         <rect x="179" y="167" width="30" height="32" class="terminal" rx="10" />
         <text class="terminal" x="189" y="187">~</text>
         <rect x="251" y="291" width="30" height="32" rx="10" />
         <rect x="249" y="289" width="30" height="32" class="terminal" rx="10" />
         <text class="terminal" x="259" y="309">^</text>
         <rect x="161" y="91" width="30" height="32" rx="10" />
         <rect x="159" y="89" width="30" height="32" class="terminal" rx="10" />
         <text class="terminal" x="169" y="109">+</text>
         <rect x="161" y="47" width="26" height="32" rx="10" />
         <rect x="159" y="45" width="26" height="32" class="terminal" rx="10" />
         <text class="terminal" x="169" y="65">-</text>
         <rect x="161" y="3" width="30" height="32" rx="10" />
         <rect x="159" y="1" width="30" height="32" class="terminal" rx="10" />
         <text class="terminal" x="169" y="21">~</text>
         <rect x="231" y="125" width="26" height="32" rx="10" />
         <rect x="229" y="123" width="26" height="32" class="terminal" rx="10" />
         <text class="terminal" x="239" y="143">|</text>
         <svg:path xmlns:svg="http://www.w3.org/2000/svg" class="line" d="m17 1233 h2 m20 0 h10 m0 0 h40 m-70 0 l20 0 m-1 0 q-9 0 -9 -10 l0 -14 q0 -10 10 -10 m50 34 l20 0 m-20 0 q10 0 10 -10 l0 -14 q0 -10 -10 -10 m-50 0 h10 m30 0 h10 m-60 10 l0 -44 q0 -10 10 -10 m60 54 l0 -44 q0 -10 -10 -10 m-50 0 h10 m26 0 h10 m0 0 h4 m-60 10 l0 -44 q0 -10 10 -10 m60 54 l0 -44 q0 -10 -10 -10 m-50 0 h10 m30 0 h10 m140 122 h10 m86 0 h10 m20 0 h10 m0 0 h122 m-152 0 h20 m132 0 h20 m-172 0 q10 0 10 10 m152 0 q0 -10 10 -10 m-162 10 v12 m152 0 v-12 m-152 12 q0 10 10 10 m132 0 q10 0 10 -10 m-142 10 h10 m38 0 h10 m0 0 h10 m54 0 h10 m-278 -32 l20 0 m-1 0 q-9 0 -9 -10 l0 -200 q0 -10 10 -10 m278 220 l20 0 m-20 0 q10 0 10 -10 l0 -200 q0 -10 -10 -10 m-258 0 h10 m0 0 h40 m-70 0 l20 0 m-1 0 q-9 0 -9 -10 l0 -14 q0 -10 10 -10 m50 34 l20 0 m-20 0 q10 0 10 -10 l0 -14 q0 -10 -10 -10 m-50 0 h10 m30 0 h10 m-60 10 l0 -44 q0 -10 10 -10 m60 54 l0 -44 q0 -10 -10 -10 m-50 0 h10 m26 0 h10 m0 0 h4 m-60 10 l0 -44 q0 -10 10 -10 m60 54 l0 -44 q0 -10 -10 -10 m-50 0 h10 m30 0 h10 m40 122 h10 m28 0 h10 m0 0 h8 m-76 0 h20 m56 0 h20 m-96 0 q10 0 10 10 m76 0 q0 -10 10 -10 m-86 10 v24 m76 0 v-24 m-76 24 q0 10 10 10 m56 0 q10 0 10 -10 m-66 10 h10 m30 0 h10 m0 0 h6 m-66 -10 v20 m76 0 v-20 m-76 20 v24 m76 0 v-24 m-76 24 q0 10 10 10 m56 0 q10 0 10 -10 m-66 10 h10 m28 0 h10 m0 0 h8 m-66 -10 v20 m76 0 v-20 m-76 20 v24 m76 0 v-24 m-76 24 q0 10 10 10 m56 0 q10 0 10 -10 m-66 10 h10 m34 0 h10 m0 0 h2 m-66 -10 v20 m76 0 v-20 m-76 20 v24 m76 0 v-24 m-76 24 q0 10 10 10 m56 0 q10 0 10 -10 m-66 10 h10 m36 0 h10 m20 -176 h92 m-318 220 l20 0 m-1 0 q-9 0 -9 -10 l0 -410 q0 -10 10 -10 m318 430 l20 0 m-20 0 q10 0 10 -10 l0 -410 q0 -10 -10 -10 m-298 0 h10 m0 0 h40 m-70 0 l20 0 m-1 0 q-9 0 -9 -10 l0 -14 q0 -10 10 -10 m50 34 l20 0 m-20 0 q10 0 10 -10 l0 -14 q0 -10 -10 -10 m-50 0 h10 m30 0 h10 m-60 10 l0 -44 q0 -10 10 -10 m60 54 l0 -44 q0 -10 -10 -10 m-50 0 h10 m26 0 h10 m0 0 h4 m-60 10 l0 -44 q0 -10 10 -10 m60 54 l0 -44 q0 -10 -10 -10 m-50 0 h10 m30 0 h10 m40 122 h10 m30 0 h10 m-70 0 h20 m50 0 h20 m-90 0 q10 0 10 10 m70 0 q0 -10 10 -10 m-80 10 v24 m70 0 v-24 m-70 24 q0 10 10 10 m50 0 q10 0 10 -10 m-60 10 h10 m26 0 h10 m0 0 h4 m20 -44 h138 m-358 430 l20 0 m-1 0 q-9 0 -9 -10 l0 -576 q0 -10 10 -10 m358 596 l20 0 m-20 0 q10 0 10 -10 l0 -576 q0 -10 -10 -10 m-338 0 h10 m0 0 h40 m-70 0 l20 0 m-1 0 q-9 0 -9 -10 l0 -14 q0 -10 10 -10 m50 34 l20 0 m-20 0 q10 0 10 -10 l0 -14 q0 -10 -10 -10 m-50 0 h10 m30 0 h10 m-60 10 l0 -44 q0 -10 10 -10 m60 54 l0 -44 q0 -10 -10 -10 m-50 0 h10 m26 0 h10 m0 0 h4 m-60 10 l0 -44 q0 -10 10 -10 m60 54 l0 -44 q0 -10 -10 -10 m-50 0 h10 m30 0 h10 m20 122 h10 m20 0 h10 m0 0 h228 m-398 596 l20 0 m-1 0 q-9 0 -9 -10 l0 -742 q0 -10 10 -10 m398 762 l20 0 m-20 0 q10 0 10 -10 l0 -742 q0 -10 -10 -10 m-378 0 h10 m0 0 h40 m-70 0 l20 0 m-1 0 q-9 0 -9 -10 l0 -14 q0 -10 10 -10 m50 34 l20 0 m-20 0 q10 0 10 -10 l0 -14 q0 -10 -10 -10 m-50 0 h10 m30 0 h10 m-60 10 l0 -44 q0 -10 10 -10 m60 54 l0 -44 q0 -10 -10 -10 m-50 0 h10 m26 0 h10 m0 0 h4 m-60 10 l0 -44 q0 -10 10 -10 m60 54 l0 -44 q0 -10 -10 -10 m-50 0 h10 m30 0 h10 m20 122 h10 m30 0 h10 m0 0 h258 m-438 762 l20 0 m-1 0 q-9 0 -9 -10 l0 -908 q0 -10 10 -10 m438 928 l20 0 m-20 0 q10 0 10 -10 l0 -908 q0 -10 -10 -10 m-418 0 h10 m0 0 h40 m-70 0 l20 0 m-1 0 q-9 0 -9 -10 l0 -14 q0 -10 10 -10 m50 34 l20 0 m-20 0 q10 0 10 -10 l0 -14 q0 -10 -10 -10 m-50 0 h10 m30 0 h10 m-60 10 l0 -44 q0 -10 10 -10 m60 54 l0 -44 q0 -10 -10 -10 m-50 0 h10 m26 0 h10 m0 0 h4 m-60 10 l0 -44 q0 -10 10 -10 m60 54 l0 -44 q0 -10 -10 -10 m-50 0 h10 m30 0 h10 m20 122 h10 m30 0 h10 m0 0 h298 m-478 928 l20 0 m-1 0 q-9 0 -9 -10 l0 -1074 q0 -10 10 -10 m478 1094 l20 0 m-20 0 q10 0 10 -10 l0 -1074 q0 -10 -10 -10 m-458 0 h10 m0 0 h40 m-70 0 l20 0 m-1 0 q-9 0 -9 -10 l0 -14 q0 -10 10 -10 m50 34 l20 0 m-20 0 q10 0 10 -10 l0 -14 q0 -10 -10 -10 m-50 0 h10 m30 0 h10 m-60 10 l0 -44 q0 -10 10 -10 m60 54 l0 -44 q0 -10 -10 -10 m-50 0 h10 m26 0 h10 m0 0 h4 m-60 10 l0 -44 q0 -10 10 -10 m60 54 l0 -44 q0 -10 -10 -10 m-50 0 h10 m30 0 h10 m20 122 h10 m26 0 h10 m0 0 h342 m23 1094 h-3" />
         <polygon points="637 1233 645 1229 645 1237" />
         <polygon points="637 1233 629 1229 629 1237" />
      </svg>
